<svg width="46" height="47" viewBox="0 0 46 47" fill="none" xmlns="http://www.w3.org/2000/svg">
<path d="M21.5867 5.38868C21.1169 5.39166 20.876 5.43924 20.876 6.50682C20.876 7.57441 20.9771 40.3692 20.9771 40.7261C20.9771 41.083 21.3339 41.2346 21.9436 41.2346C22.5532 41.2346 24.0282 41.2346 24.4356 41.2346C24.843 41.2346 24.9947 40.9818 24.9441 40.3187C24.8936 39.6585 24.8876 6.55738 24.8876 6.15294C24.8876 5.74851 24.7032 5.43032 24.052 5.40653C23.5226 5.39166 22.1458 5.38571 21.5867 5.38868Z" fill="white"/>
<path d="M17.3098 17.3641C17.3098 17.3641 17.2354 15.5025 18.5498 14.2981C19.7601 13.1889 20.8902 13.2722 20.8902 13.2722L20.9021 15.1189C20.9021 15.1189 21.592 14.881 22.7577 14.9286C23.9234 14.9762 24.884 15.3836 24.884 15.3836V13.4447C24.884 13.4447 25.5293 13.4149 26.5047 14.5628C26.9924 15.1368 27.3938 16.3322 27.5277 16.9567C27.6972 17.7596 27.9916 18.1313 28.7677 18.1879C29.5439 18.2444 30.1327 18.2384 30.6115 18.2206C31.2925 18.1968 29.1573 14.4885 29.1573 14.4885C29.1573 14.4885 26.7723 10.8932 25.9962 10.8694C25.217 10.8456 20.3995 10.9675 19.9386 11.2114C19.4776 11.4552 16.4593 13.5725 16.4593 13.5725L16.0459 16.8556C16.0459 16.8556 17.1908 18.1938 17.1908 18.0957C17.1878 17.9975 17.3098 17.3641 17.3098 17.3641Z" fill="white"/>
<path d="M14.994 17.3651L12.722 15.5808C12.722 15.5808 12.2373 19.2623 14.0721 21.4808C15.4162 23.1015 16.9923 23.7676 18.3781 24.3772C19.6747 24.9452 20.9266 25.3378 20.9266 25.3378L20.9326 27.5146L24.9026 29.626L24.8966 26.7682C24.8966 26.7682 26.4043 27.586 27.1597 28.3889C27.915 29.1918 27.9864 30.188 28.0102 30.8214C28.034 31.4548 27.7188 32.4511 27.7188 32.4511L27.2816 34.3959L32.343 29.287L20.4003 21.3559L14.994 17.3651Z" fill="white"/>
<path d="M12.9982 28.7893C12.9982 28.7893 12.3916 29.3097 12.567 30.7223C12.7276 32.0337 13.4681 34.0797 15.6806 35.8788C17.893 37.6779 20.9739 38.0229 20.9739 38.0229V39.5246L24.929 39.5187L24.9231 38.0288C24.9231 38.0288 27.2842 37.9307 29.2796 36.6639C31.3672 35.3405 32.8928 32.6403 32.8065 30.1037C32.7768 29.2146 32.2118 29.3543 32.2118 29.3543C32.2118 29.3543 24.9498 35.6349 24.4621 35.6825C23.9744 35.7301 19.255 34.9034 19.255 34.9034L14.8538 30.1126L12.9982 28.7893Z" fill="white"/>
<path d="M14.8537 28.2628C13.3728 28.4085 12.8583 28.7 12.8345 29.1401C12.8108 29.5772 14.0984 37.2228 23.1 37.0949C31.7359 36.973 32.7589 31.7184 32.8302 29.6754C32.9194 27.219 31.4682 25.176 28.209 23.252C25.7794 21.8216 19.9121 19.6746 18.9397 19.0679C18.0446 18.5088 16.7986 17.2688 16.9681 15.4191C17.1376 13.5694 19.1568 11.7465 22.88 11.7702C26.6031 11.794 28.0692 14.3872 28.3547 15.1514C28.8127 16.3855 28.7234 17.9944 29.4015 18.2055C29.7167 18.3036 30.6415 18.268 31.1768 18.1936C31.7121 18.1193 32.4734 17.7089 32.515 16.6353C32.5626 15.3953 31.2749 8.46043 22.6629 8.53477C14.4404 8.60317 12.4152 13.6467 12.7334 16.5402C13.0308 19.285 15.2671 21.8662 18.8683 23.3264C22.4696 24.7865 28.8424 26.5618 28.771 29.8449C28.7056 32.7919 25.2887 33.8327 22.4696 33.69C19.6237 33.5443 18.0654 31.8908 17.4826 29.943C16.9205 28.0785 15.85 28.1677 14.8537 28.2628Z" fill="white"/>
<path d="M16.2196 29.1935C15.9162 28.6284 13.8881 28.7147 13.6294 29.6722C13.3677 30.6268 14.2955 32.1167 14.917 31.9888C15.7705 31.8104 15.0479 30.7874 15.381 30.3978C15.711 30.0023 16.5943 29.8923 16.2196 29.1935Z" fill="#C0B6FF"/>
<path d="M22.7302 5.8974C22.1386 5.88254 21.4757 5.8766 21.4401 6.67324C21.4074 7.44313 21.4609 8.03466 21.7581 8.06439C22.097 8.10006 22.5756 7.36881 22.7837 7.05075C23.0512 6.65243 23.3693 5.91524 22.7302 5.8974Z" fill="#C0B6FF"/>
<path d="M18.1855 10.5901C17.9565 10.26 16.6897 9.99535 14.9322 12.1662C13.1747 14.3371 13.823 15.482 14.2244 15.5325C14.7716 15.6009 15.0749 15.1519 15.411 14.4144C15.8898 13.3646 16.4607 12.7253 17.3529 12.0502C18.1141 11.4733 18.5781 11.1581 18.1855 10.5901Z" fill="#C0B6FF"/>
</svg>
