<svg width="43" height="44" viewBox="0 0 43 44" fill="none" xmlns="http://www.w3.org/2000/svg">
<path d="M26.1483 27.28L26.6934 28.7248C26.6934 28.7248 25.8574 29.1227 25.9611 30.3166C26.0647 31.5106 26.9576 32.1794 27.7201 32.2831C28.6632 32.4135 29.4157 31.4671 29.2485 30.3768C29.0813 29.2866 28.3288 28.6612 28.3288 28.6612L28.3087 27.4038L26.1483 27.28Z" fill="#858585"/>
<path d="M9.34277 10.168C9.36284 10.0577 10.6905 8.86041 11.647 8.08453C12.6068 7.30866 13.172 6.77023 13.3994 6.77692C13.6469 6.78026 14.396 7.20164 14.911 7.49594C15.3558 7.7501 15.9611 8.14139 15.9611 8.14139L15.0013 9.83694C15.0013 9.83694 11.5901 13.9303 11.5333 13.8936C11.4831 13.8568 9.34277 10.168 9.34277 10.168Z" fill="white"/>
<path d="M11.667 13.0639C11.667 13.0639 13.4562 10.8701 14.2856 9.94703C15.115 9.024 15.9644 8.14111 15.9644 8.14111C15.9644 8.14111 16.2955 8.30833 16.2788 8.63941C16.2587 8.9705 16.1115 9.22801 15.8908 9.52565C15.6701 9.81995 12.59 13.7863 12.59 13.7863L11.667 13.0639Z" fill="white"/>
<path d="M24.9346 15.9899C24.9346 15.9899 36.8469 5.04075 36.9974 4.99058C37.1479 4.94042 37.6663 5.04075 38.4555 5.28823C39.2481 5.5357 40.6059 6.17781 40.5825 6.32495C40.5591 6.4721 40.4086 7.2647 40.4086 7.2647C40.4086 7.2647 30.9275 22.3642 30.2854 21.5247C29.6433 20.6853 24.9346 15.9899 24.9346 15.9899Z" fill="white"/>
<path d="M30.7393 20.5283C30.7393 20.5283 40.0498 6.98059 40.1902 6.80334C40.3976 6.53914 40.2303 6.21809 40.0029 5.97061C39.7722 5.71979 39.5849 5.65625 39.5849 5.65625C39.5849 5.65625 40.334 5.93717 40.6684 6.15789C41.043 6.40203 41.3373 6.6796 41.2738 6.95049C41.2102 7.22138 31.6389 21.7757 31.5987 21.6921C31.5586 21.6085 30.7393 20.5283 30.7393 20.5283Z" fill="white"/>
<path d="M4.72409 4.49847C4.72409 4.49847 4.43648 4.2744 4.27595 4.46503C4.11543 4.65565 5.71734 13.6919 5.71734 13.6919L9.55993 16.3506L18.4959 24.3903L26.7897 27.6844L28.7294 28.3165C28.7294 28.3165 30.5621 27.0691 30.5621 26.9921C30.5621 26.9152 28.6558 21.0627 28.6558 21.0627L10.9846 14.4644L4.72409 4.49847Z" fill="#9A9A9A"/>
<path d="M8.24002 6.32117C7.88887 5.93658 4.72852 4.49854 4.72852 4.49854L9.56435 14.9561L10.1998 15.6685C10.1998 15.6685 12.2599 17.7486 14.4236 19.3773C16.5874 21.0059 18.4133 21.7417 19.9818 22.5677C21.9014 23.5777 23.4766 24.0894 24.7307 24.6345C26.2557 25.3 27.5934 25.6712 28.2723 26.5775C28.8943 27.4069 28.7305 28.3165 28.7305 28.3165C28.7305 28.3165 29.9979 28.8951 31.5497 29.2496C33.1014 29.6074 36.4859 30.0389 37.352 28.0022C38.2182 25.9655 36.9942 23.8787 34.0445 22.1229C31.0949 20.3672 29.7438 20.0863 29.7438 20.0863L28.9278 17.8222C28.9278 17.8222 26.7908 16.043 25.443 15.5313C24.0953 15.023 18.42 14.003 18.42 14.003L11.805 13.2137C11.8017 13.2171 8.51759 6.62885 8.24002 6.32117Z" fill="#C8C8C8"/>
<path d="M17.8884 23.7953C17.5874 23.9056 14.7281 27.5007 14.0258 28.3468C13.4071 29.0926 6.38072 37.2761 6.17003 37.6707C5.95934 38.0653 6.51114 38.5636 6.51114 38.5636L10.4574 40.1421L23.1891 29.6779L25.9414 26.056C25.9414 26.056 24.1054 24.9959 21.8681 24.4942C19.6308 23.9926 18.1794 23.6916 17.8884 23.7953Z" fill="white"/>
<path d="M25.9374 26.0562C25.9374 26.0562 10.9316 39.3698 10.5871 39.4567C10.3162 39.5236 8.91498 39.1524 7.75451 38.5972C6.7646 38.1257 6.17266 37.6709 6.17266 37.6709C6.17266 37.6709 5.75128 38.1457 6.27633 38.8815C6.80139 39.6172 9.87813 40.9048 10.4299 40.8279C10.9817 40.7476 11.8747 39.8547 12.6372 39.2226C13.3997 38.5905 26.6798 27.2568 26.6798 27.2568C26.6798 27.2568 26.6665 26.8387 26.4959 26.5745C26.2618 26.2066 25.9374 26.0562 25.9374 26.0562Z" fill="white"/>
<path d="M18.4849 24.8559C18.0702 24.6486 17.5987 25.1703 17.1974 25.6853C16.796 26.2003 8.95369 35.561 8.69618 35.9055C8.43867 36.2499 8.23801 36.6211 8.60923 36.8486C8.98044 37.076 9.355 36.678 9.69612 36.2466C10.0406 35.8185 18.2541 26.0264 18.4849 25.7689C18.7157 25.5114 19.0568 25.1435 18.4849 24.8559Z" fill="#B4DDFA"/>
<path d="M35.7397 33.6382C36.0608 34.0329 38.7663 32.4109 40.1977 29.9227C41.5354 27.5951 42.2811 24.6555 41.3882 24.6321C40.4953 24.6087 40.6491 26.2708 40.2779 27.5349C40.0472 28.3242 39.4987 29.9261 37.9871 31.411C36.4922 32.8858 35.4254 33.247 35.7397 33.6382Z" fill="#E1E0DF"/>
<path d="M23.0236 19.7283C22.8163 19.6514 22.6892 19.7985 22.7494 20.0761C22.7928 20.2835 23.2209 22.7549 23.2577 22.9622C23.2945 23.1696 23.5219 23.3401 23.8229 23.4706C24.1239 23.601 26.01 24.4906 26.2375 24.5274C26.4649 24.5642 26.5384 24.2632 26.408 23.8685C26.2776 23.4739 25.7258 21.6814 25.1673 20.9456C24.7225 20.357 23.5119 19.9089 23.0236 19.7283Z" fill="white"/>
<path d="M17.6529 14.3645C17.4756 14.7022 17.6796 14.9999 19.3585 15.5082C20.937 15.9864 21.7496 16.3209 22.6158 16.6787C23.482 17.0365 24.7026 17.7489 25.3882 17.9495C26.0738 18.1535 26.9166 18.2304 27.3981 17.6184C27.6891 17.2506 27.348 16.575 26.328 15.963C25.308 15.351 23.9602 14.8427 21.7731 14.4347C19.5859 14.0334 17.9071 13.8795 17.6529 14.3645Z" fill="#E0E0E0"/>
<path d="M18.7735 17.9797C18.3788 17.8493 18.4892 18.0399 18.4992 18.361C18.5026 18.5315 18.7501 20.4545 18.7701 20.5849C18.7902 20.7154 18.7969 20.896 19.2049 21.0933C19.6363 21.304 21.5994 22.3206 21.79 22.4143C21.9773 22.5079 22.0341 22.227 21.9773 21.8491C21.9204 21.4712 21.6629 19.4044 21.5894 19.2706C21.5158 19.1369 18.9908 18.0533 18.7735 17.9797Z" fill="white"/>
<path d="M28.6933 17.8926C28.5295 18.0097 28.3054 18.2605 27.7168 18.8023C27.0379 19.4243 26.2855 19.7888 26.3122 20.1935C26.3323 20.548 26.6801 21.2402 27.1449 22.1934C27.5864 23.0963 28.0078 24.0093 28.1449 24.2133C28.4291 24.628 28.9943 24.7618 29.4291 24.4574C29.8638 24.1531 30.3722 23.7786 30.9574 23.0796C31.5427 22.3806 31.7132 21.966 31.6932 21.3807C31.6731 20.7955 29.2485 18.1468 29.1348 17.9963C29.0177 17.8458 28.9007 17.7421 28.6933 17.8926Z" fill="white"/>
<path d="M38.8939 21.2174C39.0477 21.4716 36.9609 21.8361 34.8072 24.759C32.523 27.8558 32.6702 29.4076 32.6534 29.9594C32.63 30.7754 32.4662 31.5446 31.911 31.3707C31.5264 31.2503 31.2589 30.4978 31.7538 28.4177C32.2488 26.3375 33.7036 23.8995 35.3356 22.6588C37.613 20.9231 38.7467 20.9699 38.8939 21.2174Z" fill="#E1E0DF"/>
<path d="M37.1612 25.8724C37.1612 25.8724 37.5324 24.4343 38.4722 23.1234C39.4119 21.8124 40.3049 21.1168 40.6527 21.1436C41.0005 21.167 41.1476 21.4145 41.1476 21.4145L38.5959 26.7252C38.5959 26.7252 38.7866 26.9593 38.9538 27.2335C39.1578 27.5713 38.8434 28.0997 38.8434 28.0997L36.5425 28.695L33.0979 33.8953C33.0979 33.8953 32.5026 33.795 32.5528 33.0793C32.603 32.3603 33.1213 30.9724 33.9641 29.9056C34.8069 28.8388 36.0075 28.3137 36.0075 28.3137L36.1947 27.6047C36.1947 27.6047 35.8436 27.2536 36.071 26.7118C36.3653 26.0095 37.1612 25.8724 37.1612 25.8724Z" fill="#799FAE"/>
<path d="M37.957 26.2098C37.957 26.2098 38.1644 26.3603 38.3149 26.4774C38.4654 26.5944 38.6225 26.7516 38.6225 26.7516C38.6225 26.7516 39.7128 25.4774 40.3281 24.2133C40.8833 23.0729 41.5354 21.6348 41.1508 21.4141C40.7629 21.1934 39.4452 23.0729 38.957 23.9959C38.4654 24.9189 37.957 26.2098 37.957 26.2098Z" fill="white"/>
<path d="M36.0717 26.7151C36.0717 26.7151 36.3493 27.6883 37.1653 27.919C38.1953 28.2066 38.9578 27.2268 38.9578 27.2268C38.9578 27.2268 39.3892 27.8756 39.2086 28.4173C39.018 28.9825 37.9445 29.2367 37.5097 29.2567C37.075 29.2735 36.7339 29.24 36.7339 29.24C36.7339 29.24 36.2623 30.7751 35.4329 31.989C34.7039 33.0525 33.4866 34.2029 33.1053 33.902C32.7241 33.601 33.5802 32.1128 34.1688 31.1964C34.9447 29.9858 36.1586 28.9558 36.1586 28.9558C36.1586 28.9558 35.8677 28.5745 35.8142 28.016C35.7373 27.2502 36.0717 26.7151 36.0717 26.7151Z" fill="white"/>
<path d="M15.3933 16.7521C15.1358 16.6451 14.9218 16.8123 14.9017 17.0965C14.8816 17.3808 14.9987 18.4677 15.0555 18.6316C15.1157 18.8088 17.4434 20.1231 17.6306 20.1231C17.7142 20.1231 17.6206 19.4911 17.5704 18.956C17.5002 18.2068 17.4634 17.6818 17.3798 17.5514C17.323 17.4611 15.6174 16.8457 15.3933 16.7521Z" fill="white"/>
<path d="M5.53126 12.8228C5.33061 12.8629 1.23385 17.4981 1.177 17.672C1.12015 17.8459 1.55491 18.4278 1.55491 18.4278L3.87918 19.4445L10.7049 14.6822C10.7015 14.6822 5.82222 12.7659 5.53126 12.8228Z" fill="white"/>
<path d="M1.17618 17.6719C1.17618 17.6719 3.49042 18.8157 3.95528 18.7588C4.42014 18.702 10.7141 14.6821 10.7141 14.6821C10.7141 14.6821 11.3462 15.1169 10.9749 15.5985C10.6037 16.0767 4.69437 19.9159 4.01882 19.8725C3.45029 19.8357 1.20962 18.8591 1.09592 18.5849C0.858471 17.9963 1.17618 17.6719 1.17618 17.6719Z" fill="white"/>
</svg>
