<svg width="41" height="41" viewBox="0 0 41 41" fill="none" xmlns="http://www.w3.org/2000/svg">
<path d="M21.423 36.8729C19.5592 36.8729 18.0482 35.362 18.0482 33.4981C18.0482 31.6343 19.5592 30.1233 21.423 30.1233C23.2869 30.1233 24.7979 31.6343 24.7979 33.4981C24.7979 35.362 23.2869 36.8729 21.423 36.8729Z" fill="#CC3333"/>
<path d="M21.8728 36.3953C20.273 36.3953 18.9761 35.0983 18.9761 33.4985C18.9761 31.8987 20.273 30.6018 21.8728 30.6018C23.4726 30.6018 24.7695 31.8987 24.7695 33.4985C24.7695 35.0983 23.4726 36.3953 21.8728 36.3953Z" fill="#F44336"/>
<path opacity="0.2" d="M23.5045 32.4858C23.167 31.9796 22.4358 31.5577 21.6764 31.4452C21.4796 31.4171 21.3108 31.4171 21.1421 31.4734C21.0296 31.5296 20.9171 31.6421 21.0015 31.7546C21.0577 31.8671 21.1983 31.8952 21.3108 31.9233C22.0139 32.1202 22.6608 32.5983 23.0545 33.1608C23.1951 33.3858 23.4482 33.9763 23.7295 33.8357C24.0107 33.6389 23.9545 33.1045 23.5045 32.4858Z" fill="white"/>
<path d="M26.0341 8.83388C26.6247 9.39635 26.9903 10.0713 27.159 10.915C27.2434 11.4494 27.7215 11.815 28.2559 11.815H26.3153C25.781 11.815 25.3029 11.4494 25.2185 10.915C25.0779 10.0713 24.6842 9.39635 24.0936 8.83388C23.503 8.29953 22.7718 7.96205 21.8999 7.82143C22.2093 7.76518 22.5468 7.73706 22.8843 7.73706C24.178 7.76518 25.2185 8.13079 26.0341 8.83388Z" fill="#CC3333"/>
<path d="M13.8311 5.43113C15.5466 3.88433 17.909 3.125 20.9463 3.125C21.2838 3.125 21.5932 3.125 21.9025 3.15312C19.3433 3.29374 17.2903 4.05308 15.7716 5.43113C14.0561 6.97792 13.2124 9.14343 13.2124 11.8995C13.2124 14.3744 14.3654 16.793 16.6435 19.1835L19.3996 21.8834C19.4277 21.9115 19.4558 21.9396 19.4839 21.9678C20.2995 22.924 20.7776 24.2176 20.9463 25.8769C21.0026 26.4394 21.4807 26.8894 22.0713 26.8894H20.1308C19.5683 26.8894 19.0621 26.4394 19.0058 25.8769C18.8652 24.2176 18.359 22.924 17.5434 21.9678C17.5153 21.9396 17.4872 21.9115 17.459 21.8834L14.7029 19.1835C12.3968 16.793 11.2719 14.3744 11.2719 11.8995C11.3 9.14343 12.1437 6.97792 13.8311 5.43113Z" fill="#CC3333"/>
<path d="M20.9452 25.905C20.8046 24.2457 20.2984 22.952 19.4828 21.9958C19.4547 21.9677 19.4266 21.9395 19.3985 21.9114L16.6423 19.2116C14.3362 16.8211 13.2113 14.4024 13.2113 11.9276C13.2113 9.17146 14.055 7.00595 15.7705 5.45916C17.2892 4.0811 19.3141 3.32177 21.9014 3.18115C24.4044 3.32177 26.4575 4.10923 28.0605 5.48728C29.551 6.78096 30.451 8.46837 30.7041 10.5776C30.7885 11.2526 30.2541 11.8151 29.5792 11.8151H28.2292C27.6949 11.8151 27.2168 11.4495 27.1324 10.9151C26.9918 10.0714 26.5981 9.39645 26.0075 8.83398C25.22 8.10277 24.1513 7.73716 22.8576 7.73716C22.5202 7.73716 22.1827 7.76529 21.8733 7.82153C21.564 7.76529 21.2546 7.73716 20.9171 7.73716C19.5672 7.73716 18.5266 8.10277 17.8235 8.8621C17.1204 9.62144 16.7548 10.6901 16.7548 12.0963C16.7548 13.165 17.0642 14.1774 17.6548 15.0774C18.0485 15.6961 18.9766 16.7086 20.4671 18.1429C21.9296 19.5772 22.942 20.899 23.4201 22.0802C23.8138 23.0364 24.067 24.2457 24.1232 25.7081C24.1513 26.3549 23.6451 26.8893 22.9983 26.8893H22.0139C21.5077 26.9174 21.0015 26.4674 20.9452 25.905Z" fill="#F44336"/>
<path opacity="0.2" d="M27.8638 6.47182C26.9076 5.29063 25.0796 4.44693 23.2516 4.33443C22.8016 4.30631 22.3516 4.33443 21.986 4.5313C21.7048 4.67191 21.5079 4.98127 21.7048 5.26251C21.8735 5.4875 22.211 5.57187 22.4922 5.62811C24.2078 5.9656 25.8671 6.94992 26.9639 8.2436C27.3857 8.74982 28.0888 10.156 28.7075 9.70602C29.3544 9.17168 29.045 7.90612 27.8638 6.47182Z" fill="white"/>
</svg>
