<svg width="18" height="22" viewBox="0 0 18 22" fill="none" xmlns="http://www.w3.org/2000/svg">
<path d="M6.5 7.5H11.5M9 5V10M5 14H13M5 17H13M4.2 21H13.8C14.9201 21 15.4802 21 15.908 20.782C16.2843 20.5903 16.5903 20.2843 16.782 19.908C17 19.4802 17 18.9201 17 17.8V4.2C17 3.07989 17 2.51984 16.782 2.09202C16.5903 1.71569 16.2843 1.40973 15.908 1.21799C15.4802 1 14.9201 1 13.8 1H4.2C3.0799 1 2.51984 1 2.09202 1.21799C1.71569 1.40973 1.40973 1.71569 1.21799 2.09202C1 2.51984 1 3.0799 1 4.2V17.8C1 18.9201 1 19.4802 1.21799 19.908C1.40973 20.2843 1.71569 20.5903 2.09202 20.782C2.51984 21 3.07989 21 4.2 21Z" stroke="#404040" stroke-width="2" stroke-linecap="round"/>
</svg>
