<svg width="65" height="65" viewBox="0 0 65 65" fill="none" xmlns="http://www.w3.org/2000/svg">
<rect width="65" height="65" rx="32.5" fill="#FF4B55"/>
<path d="M18.0277 33.2702C18.0277 41.0124 24.3024 47.2872 32.0376 47.2872C34.9204 47.2872 37.5787 46.4013 39.7928 44.8999C40.1283 44.6726 40.5157 45.111 40.235 45.4032C37.0584 48.7119 32.6099 50.7812 27.6601 50.7812C17.6118 50.7812 9.54114 42.3105 10.1932 32.1179C10.7627 23.2193 18.1402 16.0743 27.0519 15.7702C32.2391 15.593 36.9173 17.6895 40.2229 21.1262C40.5063 21.421 40.1197 21.8659 39.7811 21.6366C37.5694 20.1385 34.9155 19.2534 32.0376 19.2534C24.3026 19.2534 18.0277 25.5424 18.0277 33.2702Z" fill="#F5F5F5"/>
<path d="M49.9606 30.8612L47.2159 27.2706C47.0625 27.0698 46.7416 27.1799 46.7439 27.4326L46.784 31.952L42.521 33.4528C42.2825 33.5367 42.2883 33.8757 42.5293 33.9517L46.8398 35.3103L46.9499 39.8284C46.956 40.0809 47.2805 40.1803 47.4271 39.9746L50.0511 36.2949L54.3822 37.5865C54.6242 37.6587 54.819 37.3812 54.6686 37.178L51.9798 33.5452L54.5464 29.8253C54.69 29.6174 54.4861 29.3464 54.2465 29.4266L49.9606 30.8612Z" fill="#F5F5F5"/>
</svg>
